<svg xmlns="http://www.w3.org/2000/svg" viewBox="0 0 430 120" width="860" height="240">
  <defs>
    <linearGradient id="gRing" gradientUnits="userSpaceOnUse" x1="12" y1="12" x2="88" y2="88">
      <stop offset="0" stop-color="#ffb627"></stop><stop offset="0.5" stop-color="#ff7a40"></stop><stop offset="1" stop-color="#ff4d00"></stop>
    </linearGradient>
    <linearGradient id="gStar" gradientUnits="userSpaceOnUse" x1="28" y1="28" x2="72" y2="72">
      <stop offset="0" stop-color="#ff7a40"></stop><stop offset="1" stop-color="#ff4d00"></stop>
    </linearGradient>
    <linearGradient id="g360" gradientUnits="userSpaceOnUse" x1="0" y1="0" x2="1" y2="1" gradientTransform="rotate(20)">
      <stop offset="0" stop-color="#ffb627"></stop><stop offset="0.5" stop-color="#ff7a40"></stop><stop offset="1" stop-color="#ff4d00"></stop>
    </linearGradient>
  </defs>
  <g transform="translate(14 14) scale(0.92)">
    <circle cx="50" cy="50" r="40" fill="none" stroke="url(#gRing)" stroke-width="1.3" opacity="0.85"></circle>
    <g stroke="url(#gRing)" stroke-width="1.7" stroke-linecap="round" opacity="0.65">
      <line x1="84" y1="50" x2="90" y2="50"></line>
      <line x1="79.4" y1="67" x2="84.6" y2="70"></line>
      <line x1="67" y1="79.4" x2="70" y2="84.6"></line>
      <line x1="50" y1="84" x2="50" y2="90"></line>
      <line x1="33" y1="79.4" x2="30" y2="84.6"></line>
      <line x1="20.6" y1="67" x2="15.4" y2="70"></line>
      <line x1="16" y1="50" x2="10" y2="50"></line>
      <line x1="20.6" y1="33" x2="15.4" y2="30"></line>
      <line x1="33" y1="20.6" x2="30" y2="15.4"></line>
      <line x1="50" y1="16" x2="50" y2="10"></line>
      <line x1="67" y1="20.6" x2="70" y2="15.4"></line>
      <line x1="79.4" y1="33" x2="84.6" y2="30"></line>
    </g>
    <path d="M50 24 L73 64 L27 64 Z" fill="none" stroke="url(#gStar)" stroke-width="2.4" stroke-linejoin="round"></path>
    <path d="M50 76 L27 36 L73 36 Z" fill="none" stroke="url(#gStar)" stroke-width="2.4" stroke-linejoin="round"></path>
    <circle cx="50" cy="50" r="3" fill="url(#gStar)"></circle>
  </g>
  <text x="124" y="72" font-family="Inter, 'Helvetica Neue', Arial, sans-serif" font-weight="600" font-size="54" letter-spacing="-1.9" fill="#18181b">MyAstro<tspan fill="url(#g360)">360</tspan></text>
</svg>
